<svg width="360" height="440" viewBox="0 0 360 440" fill="none" xmlns="http://www.w3.org/2000/svg">
<g clip-path="url(#clip0_819_2229)">
<g clip-path="url(#clip1_819_2229)">
<path fill-rule="evenodd" clip-rule="evenodd" d="M231.45 308.792C308.704 321.995 326.949 296.439 337.533 274.795C348.117 253.152 344.736 207.414 310.232 192.916C252.058 168.473 282.892 127.065 250.87 96.3083C108.381 -40.5621 -68.7296 257.49 231.45 308.792Z" fill="url(#paint0_linear_819_2229)"/>
</g>
<path fill-rule="evenodd" clip-rule="evenodd" d="M314.302 139.028C314.302 139.028 321.774 178.28 330.855 191.286C339.936 204.292 351.09 215.586 365.678 219.632C380.265 223.678 389.149 218.118 396.162 199.411C403.175 180.703 385.666 166.315 367.978 160.04C350.29 153.764 347.761 144.281 336.81 136.264C322.597 125.86 313.14 132.172 314.302 139.028Z" fill="url(#paint1_linear_819_2229)"/>
<g clip-path="url(#clip2_819_2229)">
<mask id="mask0_819_2229" style="mask-type:luminance" maskUnits="userSpaceOnUse" x="35" y="99" width="397" height="362">
<path d="M286.439 113.226C286.439 113.226 316.46 142.38 355.914 140.82C398.255 139.144 424.872 165.784 406.624 204.735C381.611 258.131 399.175 264.385 415.828 274.964C441.61 291.359 438.52 330.728 390.572 350.576C342.624 370.423 355.675 446.739 300.789 459.516C263.006 468.319 248.39 411.206 217.135 388.752C216.21 388.086 215.439 386.764 214.436 386.967C207.322 388.387 185.374 424.846 148.082 421.406C109.643 417.865 27.8306 361.119 36.0898 312.22C43.5816 267.894 83.7303 265.17 100.523 238.04C117.322 210.923 88.559 187.453 104.401 153.712C121.435 117.423 154.347 116.476 185.633 124.974C230.727 137.244 242.304 71.3896 286.439 113.226Z" fill="white"/>
</mask>
<g mask="url(#mask0_819_2229)">
<path d="M186.003 145.665C184.71 149.113 180.872 150.864 177.431 149.574C173.991 148.284 172.249 144.441 173.541 140.993C174.834 137.545 178.673 135.794 182.113 137.084C185.554 138.374 187.296 142.217 186.003 145.665Z" fill="#844914"/>
<path d="M183.988 142.029C183.465 143.423 181.714 144.057 180.088 143.447C178.454 142.835 177.56 141.209 178.082 139.815C178.605 138.422 180.356 137.788 181.982 138.397C183.607 139.007 184.51 140.636 183.988 142.029Z" fill="#A05B22"/>
<path d="M175.318 148.204C174.026 151.652 170.187 153.403 166.746 152.113C163.306 150.823 161.564 146.98 162.857 143.532C164.149 140.084 167.988 138.333 171.429 139.623C174.866 140.922 176.611 144.756 175.318 148.204Z" fill="#844914"/>
<path d="M169.404 145.987C171.034 146.598 172.78 145.963 173.303 144.568C173.826 143.174 172.928 141.548 171.297 140.936C169.666 140.325 167.92 140.96 167.397 142.354C166.875 143.749 167.773 145.375 169.404 145.987Z" fill="#A05B22"/>
<path d="M166.996 156.914C165.703 160.362 161.864 162.113 158.424 160.823C154.983 159.533 153.242 155.69 154.534 152.242C155.827 148.794 159.666 147.043 163.106 148.333C166.547 149.623 168.289 153.466 166.996 156.914Z" fill="#844914"/>
<path d="M164.984 153.269C164.462 154.663 162.71 155.297 161.085 154.687C159.45 154.075 158.556 152.449 159.078 151.055C159.601 149.661 161.353 149.028 162.978 149.637C164.603 150.246 165.507 151.875 164.984 153.269Z" fill="#A05B22"/>
<path d="M154.22 172.037C157.661 173.327 161.499 171.577 162.792 168.128C164.085 164.679 162.343 160.837 158.902 159.547C155.461 158.257 151.623 160.007 150.33 163.456C149.037 166.905 150.779 170.747 154.22 172.037Z" fill="#844914"/>
<path d="M160.777 164.492C160.254 165.886 158.503 166.52 156.877 165.91C155.243 165.298 154.348 163.672 154.871 162.278C155.393 160.884 157.145 160.251 158.771 160.86C160.396 161.469 161.299 163.098 160.777 164.492Z" fill="#A05B22"/>
<path d="M337.865 237.457C337.865 237.457 351.797 263.676 383.349 282.152C414.9 300.629 442.796 314.71 442.796 314.71L396.124 392.007C396.124 392.007 351.925 357.703 328.665 341.891C305.404 326.079 283.222 322.418 276.105 320.741C281.778 311.792 337.865 237.457 337.865 237.457Z" fill="#EFA867"/>
<path d="M337.865 237.457C337.865 237.457 351.797 263.676 383.349 282.152C414.9 300.629 442.796 314.71 442.796 314.71L410.522 368.16C410.522 368.16 362.324 334.69 339.064 318.878C315.803 303.066 294.413 329.05 276.114 320.745C281.778 311.792 337.865 237.457 337.865 237.457Z" fill="#ECB67B"/>
<path d="M312.633 316.081C312.633 316.081 321.941 312.737 340.056 323.482C358.172 334.227 398.11 359.564 398.11 359.564C398.11 359.564 354.644 328.528 344.148 321.496C333.653 314.465 323.536 310.434 312.633 316.081Z" fill="#E28D4D"/>
<path d="M230.569 175.224C230.569 175.224 207.208 164.102 200.499 160.462C193.792 156.812 185.221 150.471 177.057 148.071C168.894 145.671 164.279 149.712 162.042 158.618C159.805 167.524 164.825 171.853 172.359 173.572C179.892 175.292 188.003 180.222 192.696 183.034C197.388 185.846 207.571 197.23 209.238 198.278C210.914 199.329 230.441 182.051 230.569 175.224Z" fill="#E28D4D"/>
<path d="M225.876 172.03C225.876 172.03 207.205 164.111 200.499 160.462C193.792 156.812 185.221 150.471 177.057 148.071C168.894 145.671 164.279 149.712 162.042 158.618C159.805 167.524 164.825 171.853 172.359 173.572C179.892 175.292 188.003 180.222 192.696 183.034C197.388 185.846 205.824 192.549 209.804 190.944C211.639 190.197 225.747 178.856 225.876 172.03Z" fill="#EFA867"/>
<path d="M212.538 166.204C204.015 165.558 195.869 166.272 188.894 172.019C187.819 173.35 186.472 176.448 186.907 179.656C189.122 180.889 191.117 182.08 192.705 183.037C197.397 185.849 205.833 192.552 209.812 190.947C211.644 190.21 225.756 178.86 225.884 172.033C225.875 172.029 219.289 169.24 212.538 166.204Z" fill="#EA9957"/>
<path d="M171.307 148.135C171.307 148.135 167.902 147.189 164.741 149.441C161.579 151.693 156.633 160.792 162.679 167.497C164.753 161.193 171.307 148.135 171.307 148.135Z" fill="#FFCFA4"/>
<path d="M172.39 148.541C172.39 148.541 168.986 147.595 165.824 149.847C162.662 152.099 157.717 161.198 163.762 167.903C165.837 161.599 172.39 148.541 172.39 148.541Z" fill="#EFA867"/>
<path d="M185.03 157.491C184.37 153.373 181.328 150.085 177.232 148.126C177.178 148.106 177.115 148.082 177.057 148.071C168.894 145.671 164.279 149.712 162.042 158.618C159.805 167.524 164.826 171.853 172.359 173.572C174.465 174.052 176.62 174.788 178.733 175.662C183.739 171.459 186.264 164.282 185.03 157.491Z" fill="#ECB67B"/>
<path d="M185.283 157.916C185.283 157.916 184.835 170.621 176.347 174.747C180.332 176.149 184.283 178.166 187.621 180.058C192.984 181.139 197.449 180.986 197.449 180.986L203.28 172.519C203.271 172.516 192.077 158.585 185.283 157.916Z" fill="#EA9957"/>
<path d="M269.047 193.716C269.047 193.716 236.283 172.566 231.4 172.211C226.517 171.857 214.811 193.658 209.247 198.281C203.682 202.905 192.069 216.575 187.253 221.562C182.438 226.549 174.654 256.736 177.304 263.046C179.955 269.356 194.36 283.624 208.865 292.901C223.369 302.179 249.367 318.573 277.436 321.56C305.505 324.547 321.872 283.25 321.872 283.25L269.047 193.716Z" fill="#ECB67B"/>
<path d="M218.585 259.445C209.929 246.187 194.069 241.459 182.163 232.475C178.525 243.416 175.503 258.758 177.301 263.055C179.242 267.685 187.523 276.612 197.531 284.699C197.668 271.227 202.152 258.415 218.585 259.445Z" fill="#EA9957"/>
<path d="M269.046 193.716C269.046 193.716 236.283 172.566 231.4 172.211C226.517 171.857 214.811 193.658 209.247 198.281C207.482 199.746 205.122 202.113 202.55 204.824C197.006 210.684 190.541 218.149 187.253 221.562C182.438 226.549 179.872 248.421 182.519 254.74C183.894 258.022 188.174 262.734 193.996 267.807C194.951 268.64 195.976 269.313 197.045 269.868C202.45 269.407 207.537 267.402 211.132 263.692C226.951 247.459 225.41 225.606 227.271 204.13C227.412 200.487 228.903 197.774 230.132 194.797C235.356 196.962 237.122 207.142 236.872 213.934C237.551 209.76 239.787 206.159 242.796 202.858C246.581 199.849 251.913 204.501 251.814 207.127C253.249 227.557 274.026 233.54 290.985 230.885L269.046 193.716Z" fill="#EA9957"/>
<path d="M321.869 283.259L290.976 230.882C274.017 233.536 253.24 227.554 251.805 207.124C251.904 204.497 246.572 199.846 242.787 202.855C239.778 206.155 237.542 209.756 236.863 213.93C237.122 207.142 235.347 196.959 230.123 194.794C228.894 197.77 227.406 200.475 227.263 204.127C225.405 225.593 226.945 247.446 211.124 263.688C207.532 267.389 202.432 269.4 197.036 269.865C203.206 273.076 210.95 271.788 215.86 266.383C218.281 263.718 223.173 259.266 226.789 254.758C224.394 258.949 219.841 265.821 218.269 268.968C214.672 276.146 217.648 284.911 224.828 288.48C224.887 288.513 224.951 288.537 225.02 288.573C227.573 289.84 230.458 287.804 230.226 284.961C229.649 277.983 231.735 255.632 237.546 250.46C235.666 260.037 238.824 284.829 244.273 292.766C246.837 296.504 250.625 299.256 254.947 300.639C257.964 301.605 261.018 302.523 264.094 303.356C261.817 299.374 259.803 294.831 262.029 290.762C267.718 297.757 274.727 304.142 283.13 307.416C284.76 307.655 286.382 307.861 287.988 308.029C316.056 311.016 321.869 283.259 321.869 283.259Z" fill="#EFA867"/>
<path d="M211.92 249.803C216.753 247.6 216.573 241.349 216.07 236.071C203.977 238.959 193.158 245.784 181.708 251.298C181.879 252.683 182.146 253.867 182.51 254.737C183.885 258.019 188.165 262.73 193.987 267.804C195.214 268.872 196.559 269.707 197.973 270.33C197.668 269.359 197.461 268.373 197.354 267.394C196.103 258.945 205.222 253.496 211.92 249.803Z" fill="#EA9957"/>
<path d="M264.067 181.475C264.067 181.475 235.942 224.96 282.485 274.327C260.705 260.856 237.411 214.393 264.067 181.475Z" fill="#E28D4D"/>
<path d="M244.416 181.53C244.416 181.53 244.054 191.149 238.13 206.952C232.206 222.755 234.98 232.662 234.98 232.662C235.854 220.881 237.809 214.099 240.609 206.632C243.404 199.174 247.282 183.337 244.416 181.53Z" fill="#E28D4D"/>
<path d="M230.067 203.485C230.067 203.485 230.968 215.56 230.1 232.711C229.223 249.859 230.916 254.932 223.081 264.403C215.246 273.874 211.711 294.732 211.711 294.732C211.711 294.732 211.323 279.061 218.235 267.686C225.156 256.314 227.573 258.107 227.823 242.686C228.083 227.268 230.067 203.485 230.067 203.485Z" fill="#E28D4D"/>
<path d="M243.992 222.58C243.992 222.58 239.473 256.447 271.237 274.962C263.092 267.211 247.781 252.584 243.992 222.58Z" fill="#E28D4D"/>
<path d="M209.848 201.593C209.848 201.593 196.566 199.277 189.008 189.352C181.451 179.427 170.026 188.667 170.026 188.667C170.026 188.667 161.964 204.267 171.586 213.407C181.205 222.557 196.644 223.245 201.834 222.971C207.025 222.698 209.848 201.593 209.848 201.593Z" fill="#D89456"/>
<path d="M191.434 151.892C190.141 155.34 186.303 157.091 182.862 155.801C179.422 154.511 177.68 150.669 178.973 147.22C180.265 143.772 184.104 142.021 187.545 143.311C190.985 144.601 192.727 148.444 191.434 151.892Z" fill="#844914"/>
<path d="M189.422 148.247C188.9 149.641 187.148 150.275 185.523 149.666C183.888 149.053 182.994 147.427 183.517 146.033C184.039 144.64 185.791 144.006 187.416 144.615C189.051 145.228 189.945 146.854 189.422 148.247Z" fill="#A05B22"/>
<path d="M197.2 163.272C195.907 166.72 192.068 168.471 188.628 167.181C185.187 165.891 183.445 162.048 184.738 158.6C186.031 155.152 189.869 153.401 193.31 154.691C196.75 155.981 198.492 159.823 197.2 163.272Z" fill="#844914"/>
<path d="M195.184 159.636C194.662 161.03 192.91 161.664 191.285 161.054C189.65 160.442 188.756 158.816 189.279 157.422C189.801 156.028 191.553 155.395 193.178 156.004C194.813 156.617 195.707 158.242 195.184 159.636Z" fill="#A05B22"/>
<path d="M199.332 176.541C198.039 179.989 194.2 181.74 190.76 180.45C187.319 179.16 185.577 175.317 186.87 171.869C188.163 168.421 192.002 166.67 195.442 167.96C198.879 169.259 200.624 173.092 199.332 176.541Z" fill="#844914"/>
<path d="M197.317 172.905C196.794 174.299 195.042 174.933 193.417 174.323C191.783 173.711 190.888 172.085 191.411 170.691C191.933 169.297 193.685 168.664 195.31 169.273C196.936 169.883 197.839 171.512 197.317 172.905Z" fill="#A05B22"/>
<path d="M190.316 193.858C193.757 195.148 197.595 193.398 198.888 189.949C200.181 186.5 198.44 182.658 194.999 181.368C191.557 180.078 187.72 181.828 186.427 185.277C185.134 188.726 186.875 192.568 190.316 193.858Z" fill="#844914"/>
<path d="M196.877 186.304C196.354 187.698 194.602 188.332 192.977 187.723C191.343 187.11 190.448 185.484 190.971 184.09C191.493 182.697 193.245 182.063 194.87 182.672C196.496 183.282 197.399 184.911 196.877 186.304Z" fill="#A05B22"/>
<path d="M199.309 203.113C198.016 206.562 194.177 208.312 190.737 207.023C187.296 205.733 185.554 201.89 186.847 198.442C188.14 194.993 191.979 193.243 195.419 194.533C198.86 195.822 200.601 199.665 199.309 203.113Z" fill="#844914"/>
<path d="M197.294 199.478C196.771 200.872 195.019 201.505 193.394 200.896C191.769 200.287 190.865 198.658 191.388 197.264C191.91 195.87 193.662 195.236 195.287 195.846C196.913 196.455 197.816 198.084 197.294 199.478Z" fill="#A05B22"/>
<path d="M199.539 215.824C198.246 219.273 194.407 221.023 190.967 219.734C187.526 218.444 185.784 214.601 187.077 211.153C188.37 207.704 192.209 205.954 195.649 207.243C199.086 208.542 200.831 212.376 199.539 215.824Z" fill="#844914"/>
<path d="M197.524 212.189C197.001 213.583 195.249 214.216 193.624 213.607C191.99 212.994 191.095 211.369 191.618 209.975C192.14 208.581 193.892 207.947 195.517 208.557C197.143 209.166 198.046 210.795 197.524 212.189Z" fill="#A05B22"/>
<path d="M199.297 228.998C198.004 232.447 194.165 234.197 190.724 232.907C187.284 231.618 185.542 227.775 186.835 224.327C188.128 220.878 191.966 219.128 195.407 220.417C198.856 221.711 200.589 225.55 199.297 228.998Z" fill="#844914"/>
<path d="M197.29 225.366C196.768 226.76 195.016 227.394 193.391 226.784C191.756 226.172 190.862 224.546 191.385 223.152C191.907 221.758 193.659 221.125 195.284 221.734C196.913 222.334 197.816 223.963 197.29 225.366Z" fill="#A05B22"/>
<path d="M192.373 248.979C195.814 250.269 199.652 248.519 200.945 245.07C202.238 241.62 200.496 237.779 197.055 236.489C193.614 235.199 189.776 236.949 188.483 240.398C187.19 243.847 188.931 247.689 192.373 248.979Z" fill="#844914"/>
<path d="M198.933 241.425C198.41 242.819 196.659 243.452 195.033 242.843C193.399 242.23 192.504 240.605 193.027 239.211C193.55 237.817 195.301 237.183 196.927 237.793C198.552 238.402 199.455 240.031 198.933 241.425Z" fill="#A05B22"/>
<path d="M201.819 257.929C200.527 261.378 196.688 263.128 193.247 261.838C189.807 260.549 188.065 256.706 189.358 253.257C190.65 249.809 194.489 248.059 197.93 249.348C201.37 250.638 203.112 254.481 201.819 257.929Z" fill="#844914"/>
<path d="M199.813 254.297C199.291 255.691 197.539 256.325 195.914 255.715C194.279 255.102 193.385 253.477 193.907 252.083C194.43 250.689 196.181 250.056 197.807 250.665C199.432 251.274 200.336 252.903 199.813 254.297Z" fill="#A05B22"/>
<path d="M337.866 237.457C332.082 220.465 320.243 203.804 313.728 196.428C296.806 177.253 291.906 173.619 286.801 169.93C281.695 166.24 259.073 154.219 248.862 149.204C238.651 144.189 230.919 149.868 224.298 151.814C217.668 153.757 193.228 155.238 189.963 158.453C186.702 161.659 194.805 176.227 204.853 178.518C214.901 180.808 230.321 182.15 236.758 178.36C245.959 191.564 258.259 192.573 258.259 192.573C254.09 214.711 251.912 230.741 263.737 246.395C275.56 262.058 319.274 288.862 321.076 285.099C323.69 279.637 341.934 249.408 337.866 237.457Z" fill="#E5A565"/>
<path d="M337.865 237.457C332.082 220.465 320.242 203.804 313.728 196.428C296.806 177.253 291.906 173.619 286.8 169.93C281.695 166.24 259.073 154.219 248.862 149.204C238.651 144.189 230.919 149.868 224.298 151.814C218.473 153.533 198.883 154.881 192.013 157.353C191.073 157.692 193.487 157.214 195.683 163.25C197.144 167.266 202.431 169.785 212.258 172.912C220.219 175.442 234.559 178.124 240.996 174.333C246.134 187.717 258.268 192.576 258.268 192.576C254.099 214.714 251.921 230.744 263.746 246.399C275.569 262.062 319.283 288.865 321.085 285.102C323.69 279.637 341.934 249.408 337.865 237.457Z" fill="#ECB67B"/>
<path d="M241.787 148.296C241.376 147.77 240.711 147.428 239.938 147.211C233.914 147.399 228.841 150.493 224.294 151.824C221.47 152.654 215.392 153.4 209.097 154.23C208.33 157.483 207.61 163.086 212.008 162.536C218.157 161.766 227.405 158.636 233.137 157.358C238.872 156.071 243.887 150.962 241.787 148.296Z" fill="#EFBF8F"/>
<path d="M213.959 153.595C213.959 153.595 217.775 155.367 217.742 160.784C216.233 163.326 206.784 164.986 202.49 164.491C198.19 163.983 195.695 163.275 195.695 163.275C195.695 163.275 194.33 159.388 191.433 157.61C195.914 154.696 211.082 152.837 213.959 153.595Z" fill="#FFCFA4"/>
<path d="M258.268 192.576C258.268 192.576 270.421 208.126 301.49 207.066C295.765 210.525 266.974 210.261 258.268 192.576Z" fill="#E5A565"/>
<path d="M255.618 227.723C257.14 231.08 259.204 234.146 261.616 236.888C263.997 239.659 266.76 242.068 269.693 244.189C272.606 246.365 275.856 248.027 279.131 249.565C280.819 250.228 282.496 250.919 284.211 251.51L286.825 252.284C287.704 252.521 288.55 252.848 289.454 252.991C291.236 253.349 292.999 253.783 294.797 254.096C296.604 254.36 298.409 254.655 300.22 254.88C303.842 255.298 307.49 255.623 311.133 255.605C314.774 255.618 318.437 255.381 321.983 254.574C322.868 254.358 323.746 254.13 324.617 253.868C325.474 253.56 326.348 253.289 327.16 252.881C327.579 252.697 327.992 252.501 328.38 252.265C328.782 252.044 329.184 251.823 329.551 251.558C330.32 251.072 331.044 250.487 331.633 249.768C330.565 251.298 328.986 252.378 327.365 253.268C326.56 253.74 325.693 254.075 324.83 254.454C323.962 254.789 323.073 255.075 322.183 255.361C321.277 255.579 320.374 255.818 319.466 256.015L316.716 256.481C314.871 256.677 313.01 256.888 311.151 256.903C307.429 257.077 303.72 256.78 300.036 256.442C298.193 256.246 296.361 255.941 294.53 255.688C292.697 255.383 290.879 254.96 289.058 254.597C288.139 254.438 287.266 254.101 286.363 253.845L283.689 253.039C282.802 252.768 281.95 252.376 281.077 252.039C280.211 251.683 279.332 251.364 278.486 250.985L275.984 249.717L274.738 249.084C274.329 248.858 273.942 248.6 273.539 248.356L271.158 246.875C270.391 246.34 269.659 245.766 268.91 245.207C263.017 240.706 258.103 234.693 255.618 227.723Z" fill="#E5A565"/>
<path d="M280.804 186.913C280.804 186.913 270.407 194.784 258.259 192.573C264.715 198.1 277.872 192.4 280.804 186.913Z" fill="#E5A565"/>
<path d="M236.767 178.363C236.767 178.363 244.857 173.705 244.553 165.065C246.667 168.851 244.002 178.185 236.767 178.363Z" fill="#E5A565"/>
<path d="M182.681 203.373C182.681 203.373 190.38 194.512 196.129 191.568C201.878 188.623 205.028 185.303 202.951 176.804C200.875 168.304 193.55 166.002 181.142 171.982C168.722 177.969 162.725 186.797 161.352 192.93C159.971 199.06 161.888 207.655 170.343 210.268C176.336 212.525 182.681 203.373 182.681 203.373Z" fill="#EFA867"/>
<path d="M162.257 203.128C162.099 202.78 161.957 202.417 161.833 202.06C161.954 202.426 162.099 202.78 162.257 203.128Z" fill="#ECB67B"/>
<path d="M162.277 203.188C162.265 203.163 162.259 203.15 162.248 203.124C162.259 203.15 162.271 203.175 162.277 203.188Z" fill="#ECB67B"/>
<path d="M202.948 176.813C200.872 168.313 193.547 166.011 181.139 171.991C174.666 175.108 169.953 178.998 166.718 182.875C165.037 187.086 172.926 190.931 169.469 196.5C166.945 200.87 166.377 202.577 166.498 205.358C166.714 206.925 167.3 208.466 168.227 209.402C165.335 207.967 163.426 205.723 162.288 203.181C162.305 203.218 162.322 203.255 162.336 203.302C162.381 203.401 162.426 203.501 162.48 203.604C162.628 203.896 162.775 204.189 162.939 204.467C163.028 204.614 163.117 204.761 163.206 204.908C163.342 205.124 163.48 205.331 163.623 205.529C163.756 205.723 163.901 205.912 164.05 206.092C164.14 206.208 164.234 206.315 164.324 206.432C164.546 206.691 164.776 206.931 165.026 207.17C165.117 207.256 165.2 207.338 165.291 207.424C165.56 207.669 165.841 207.909 166.137 208.134C166.218 208.195 166.298 208.256 166.378 208.317C166.702 208.552 167.032 208.768 167.385 208.983C167.453 209.019 167.528 209.068 167.597 209.104C167.979 209.32 168.369 209.517 168.783 209.703C168.828 209.72 168.882 209.741 168.927 209.758C169.381 209.948 169.842 210.121 170.34 210.277C176.345 212.528 182.69 203.376 182.69 203.376C182.69 203.376 190.389 194.515 196.138 191.571C201.875 188.632 205.034 185.316 202.948 176.813Z" fill="#ECB67B"/>
<path d="M185.595 200.243C185.595 200.243 181.905 201.461 178.314 196.946C178.376 201.284 182.718 204.016 185.595 200.243Z" fill="#EFA867"/>
<path d="M176.406 190.274C168.388 181.498 174.64 175.893 175.55 175.14C172.577 177.081 170.102 179.178 168.099 181.307C166.975 184.664 168.395 188.293 170.549 190.184C169.106 188.456 168.635 184.739 169.681 182.912C169.373 186.399 172.028 190.223 174.456 190.834C171.657 188.081 170.575 184.868 171.236 182.308C170.799 185.478 173.645 188.795 176.406 190.274Z" fill="#EFA867"/>
<path d="M191.668 168.713C191.668 168.713 188.23 171.977 190.229 179.229C192.227 186.481 186.385 189.071 183.966 189.919C181.547 190.767 176.059 186.531 176.984 180.932C177.894 175.317 181.678 170.005 191.668 168.713Z" fill="#EFA867"/>
<path d="M191.668 168.713C191.668 168.713 187.036 172.581 189.037 179.825C191.036 187.077 186.379 189.058 183.96 189.906C181.541 190.754 176.053 186.519 176.978 180.92C177.894 175.317 181.678 170.005 191.668 168.713Z" fill="#FFCFA4"/>
<path d="M168.617 240.889C168.617 240.889 182.665 227.481 194.086 225.92C205.506 224.359 211.712 223.134 217.637 215.6C223.561 208.066 220.244 201.558 215.889 200.782C211.532 200.016 195.389 200.602 185.832 203.677C176.275 206.752 164.337 208.925 159.682 215.82C155.045 222.722 158.589 236.427 168.617 240.889Z" fill="#EFA867"/>
<path d="M215.899 200.785C211.629 200.031 195.066 204.238 185.421 207.301C182.922 212.237 186.254 218.514 183.913 220.692C177.641 225.69 166.963 227.829 162.5 235.116C163.584 237.474 165.528 239.513 168.617 240.888C168.617 240.888 182.666 227.481 194.086 225.92C205.506 224.358 211.712 223.134 217.637 215.6C223.561 208.066 220.256 201.552 215.899 200.785Z" fill="#ECB67B"/>
<path d="M187.187 204.597C184.6 208.201 184.952 212.647 187.503 214.605C185.822 211.425 186.958 208.971 189.001 206.186C187.157 209.923 188.438 213.294 190.018 214.216C188.119 208.044 191.511 204.629 193.831 203.083C191.462 203.495 189.202 204.001 187.187 204.597Z" fill="#EFA867"/>
<path d="M212.478 200.597C212.478 200.597 211.512 204.437 210.274 213.645C201.536 216.872 199.615 216.885 197.078 214.613C194.545 212.332 194.01 206.67 196.984 204.234C199.966 201.801 207.934 200.081 212.478 200.597Z" fill="#EFA867"/>
<path d="M212.478 200.597C212.478 200.597 209.015 206.071 210.274 213.645C201.536 216.872 199.615 216.885 197.078 214.613C194.545 212.332 194.01 206.67 196.984 204.234C199.966 201.801 207.934 200.081 212.478 200.597Z" fill="#FFCFA4"/>
<path d="M185.18 273.411C185.18 273.411 184.323 260.506 191.794 255.771C199.264 251.036 200.652 249.12 200.652 249.12C200.652 249.12 212.076 246.971 217.842 239.832C223.621 232.687 218.15 223.545 213.027 222.512C207.913 221.482 191.197 224.971 187.571 226.264C183.954 227.561 171.301 235.02 168.611 240.876C165.936 246.748 165.301 263.47 185.18 273.411Z" fill="#EFA867"/>
<path d="M168.194 241.989C168.17 242.052 168.143 242.125 168.128 242.192C168.143 242.125 168.167 242.062 168.194 241.989Z" fill="#ECB67B"/>
<path d="M173.704 264.793C173.546 264.61 173.379 264.423 173.224 264.231C173.388 264.427 173.546 264.61 173.704 264.793Z" fill="#ECB67B"/>
<path d="M174.216 265.377C174.21 265.365 174.199 265.34 174.193 265.328C174.032 265.153 173.862 264.976 173.704 264.793C173.876 264.992 174.04 265.187 174.216 265.377Z" fill="#ECB67B"/>
<path d="M215.042 223.319C208.088 224.036 198.836 226.08 196.252 227.01C194.445 227.654 190.379 229.846 186.432 232.599C186.45 236.673 192.436 239.495 189.337 244C188.77 245.512 186.81 245.768 184.971 246.524C177.594 252.026 175.393 261.194 178.318 269.134C180.272 270.652 182.541 272.101 185.186 273.423C185.186 273.423 184.329 260.518 191.799 255.783C199.27 251.048 200.658 249.132 200.658 249.132C200.658 249.132 212.082 246.984 217.848 239.845C222.865 233.632 219.391 225.92 215.042 223.319Z" fill="#ECB67B"/>
<path d="M188.663 258.819C188.663 258.819 182.845 262.553 178.026 257.495C178.778 260.213 185.114 261.803 185.722 261.361C184.184 262.91 179.516 262.42 179.516 262.42C182.863 264.841 186.838 264.483 188.663 258.819Z" fill="#EFA867"/>
<path d="M200.648 249.129C200.648 249.129 198.451 249.936 194.272 244.158C195.511 249.123 198.232 252.579 200.648 249.129Z" fill="#EFA867"/>
<path d="M214.045 222.821C213.9 222.767 213.746 222.709 213.598 222.664C213.746 222.709 213.891 222.763 214.045 222.821Z" fill="#ECB67B"/>
<path d="M167.93 242.83C167.947 242.785 167.955 242.736 167.972 242.69C167.955 242.736 167.938 242.781 167.93 242.83Z" fill="#ECB67B"/>
<path d="M167.27 247.31C167.277 247.127 167.281 246.953 167.297 246.773C167.29 246.956 167.283 247.139 167.27 247.31Z" fill="#ECB67B"/>
<path d="M167.317 246.472C167.326 246.31 167.335 246.148 167.354 245.989C167.348 246.142 167.335 246.313 167.317 246.472Z" fill="#ECB67B"/>
<path d="M167.427 245.408C167.449 245.241 167.476 245.085 167.494 244.927C167.467 245.082 167.449 245.241 167.427 245.408Z" fill="#ECB67B"/>
<path d="M167.555 244.517C167.578 244.401 167.601 244.286 167.62 244.179C167.597 244.295 167.578 244.401 167.555 244.517Z" fill="#ECB67B"/>
<path d="M193.061 227.775C193.061 227.775 189.476 232.914 194.207 238.59C191.445 236.811 189.847 233.105 190.216 230.363C188.089 232.766 190.94 237.881 190.94 237.881C188.382 236.437 186.867 233.361 187.585 231.173C188.293 228.982 193.061 227.775 193.061 227.775Z" fill="#EFA867"/>
<path d="M211.068 223.698C211.068 223.698 209.803 227.786 211.25 234.997C206.406 238.497 200.948 237.339 197.842 236.175C194.736 235.01 195.328 227.304 197.155 225.48C198.982 223.657 208.397 222.552 211.068 223.698Z" fill="#EFA867"/>
<path d="M211.068 223.698C211.068 223.698 207.93 228.88 211.25 234.997C206.406 238.497 200.948 237.339 197.842 236.175C194.736 235.01 195.328 227.304 197.155 225.48C198.982 223.657 208.397 222.552 211.068 223.698Z" fill="#FFCFA4"/>
<path d="M280.519 321.715C280.519 321.715 301.414 324.882 329.233 294.743C327.761 306.527 302.813 330.764 280.519 321.715Z" fill="#EFA867"/>
<path d="M341.439 263.117C341.439 263.117 339.985 281.721 330.49 292.324C346.5 303.136 401.315 339.201 404.686 342.023C382.999 322.59 343.341 295.077 339.833 291.439C342.394 283.429 344.055 271.633 341.439 263.117Z" fill="#EFA867"/>
<path d="M88.5145 292.274C90.1129 292.874 92.4302 290.346 91.5588 288.192C91.0674 286.976 89.3092 285.594 86.7221 286.286C84.144 286.982 83.9226 288.891 83.9226 288.891C79.9063 289.274 65.6354 288.797 64.1595 318.696C64.0108 321.675 64.6363 326.874 61.2394 331.402C62.7558 331.259 64.0641 329.912 64.6468 328.055C64.6124 330.592 63.4269 335.732 62.7178 337.624C65.6283 336.207 66.4004 332.966 66.4004 332.966C66.1789 335.04 64.447 340.099 63.6042 341.001C69.0551 339.401 70.8456 332.784 70.7827 330.562C71.8028 333.143 67.9821 340.093 67.9821 340.093C71.8457 338.331 74.7951 329.145 74.8643 326.9C74.5799 330.324 75.8876 331.588 75.8876 331.588C77.4998 317.782 90.0212 303.585 88.5145 292.274Z" fill="#BC4646"/>
<path d="M90.8196 287.802C90.8196 287.802 89.3494 286.311 87.3349 286.712C85.317 287.122 84.5886 289.12 84.5794 289.282C86.3069 287.586 87.2926 287.512 87.2926 287.512C86.0829 288.183 85.2332 289.269 85.1483 289.495C87.0495 287.968 88.822 288.157 88.822 288.157C85.9896 289.366 85.523 289.842 85.523 289.842C87.4305 289.04 89.2935 288.933 89.2935 288.933C87.256 289.944 85.5544 290.06 85.5544 290.06C88.3452 290.446 89.7284 290.273 90.6039 289.476C91.4704 288.675 90.8196 287.802 90.8196 287.802Z" fill="#CE6161"/>
<path d="M82.8365 289.041C82.8365 289.041 82.923 287.959 84.264 288.42C85.605 288.882 88.6206 290.755 89.1096 292.363C89.2039 293.101 88.6043 293.216 88.6043 293.216C88.6043 293.216 86.5282 289.496 82.8365 289.041Z" fill="#603617"/>
<path d="M64.9017 321.358C64.9017 321.358 64.8995 321.254 64.9042 321.05C64.9335 319.461 65.1528 312.007 67.0027 306.001C69.0913 299.249 72.662 291.4 80.1968 290.477C77.482 291.235 74.2821 293.287 71.9277 297.205C69.5734 301.122 67.5598 307.098 67.3564 309.014C70.9539 299.802 75.2347 291.982 82.16 290.79C79.2259 292.106 74.8573 294.308 71.0729 302.644C75.0483 297.342 78.4704 292.308 83.4423 291.271C80.5372 293.114 74.5891 298.677 71.8624 307.462C69.1356 316.246 68.2045 327.933 65.6542 332.676C66.8547 328.842 68.0645 322.647 68.6162 318.044C69.1555 313.446 71.6733 304.779 72.8309 302.488C70.5716 306.152 68.8266 312.29 67.9422 317.946C67.3466 315.359 69.9902 305.944 70.0628 305.559C67.2586 311.857 66.8772 316.803 66.8772 316.803C66.3548 314.46 66.9753 310.058 66.9753 310.058C66.1028 313.127 64.9017 321.358 64.9017 321.358Z" fill="#CE6161"/>
<path d="M84.5858 291.71C84.5858 291.71 77.5369 295.622 74.3813 304.039C71.2258 312.457 70.5323 328.455 66.0361 337.701C69.1257 333.389 70.6981 325.266 71.3981 321.832C72.0981 318.399 74.1542 306.019 76.8556 301.561C75.2284 307.082 74.3008 311.535 73.713 316.042C73.1253 320.55 71.7557 325.879 71.0714 327.759C72.5351 325.283 74.393 319.146 75.238 313.156C76.0797 307.174 79.9893 298.916 82.0487 297.159C80.1098 301.149 78.4198 304.284 77.3996 310.549C76.3794 316.815 75.4996 320.727 74.7768 322.655C76.2136 320.004 77.0448 317.869 78.593 310.553C80.1412 303.236 87 293.018 87 293.018C86.0063 293.306 83.4641 296.048 83.4641 296.048C84.2838 294.301 86.2 292.294 86.2 292.294C84.3671 293.063 81.8749 295.287 79.807 298.001C80.5624 296.096 83.0901 293.007 84.5858 291.71Z" fill="#CE6161"/>
<path d="M136.001 292.972L135.281 292.557C136.137 291.072 136.348 289.902 135.9 289.094C135.791 288.888 135.642 288.708 135.456 288.545C135.227 288.387 134.947 288.2 134.594 288.016C133.072 287.321 130.707 287.23 128.985 287.152C127.943 287.102 127.12 287.072 126.616 286.934L124.642 286.401L126.665 286.117C130.89 285.533 133.641 286.492 135.186 287.371C135.438 287.496 135.67 287.645 135.874 287.814C136.413 288.192 136.688 288.501 136.726 288.536L136.603 288.645C136.609 288.658 136.624 288.673 136.626 288.695C137.22 289.774 137.01 291.213 136.001 292.972Z" fill="#603617"/>
<path d="M94.629 291.459C92.6768 291.502 91.0621 289.957 91.0228 288.002C90.9834 286.046 92.5278 284.426 94.48 284.384C96.4322 284.342 98.0468 285.886 98.0862 287.842C98.1166 289.794 96.5721 291.414 94.629 291.459Z" fill="#844914"/>
<path d="M107.847 293.565C109.681 293.314 110.739 291.976 115.814 293.383C120.666 294.728 124.749 294.194 125.099 294.139C125.108 294.142 125.121 294.137 125.13 294.14C127.311 294.091 129.014 290.951 128.931 287.132C128.849 283.312 127.016 280.261 124.826 280.307C124.826 280.307 120.557 279.853 115.557 281.488C110.547 283.12 109.433 281.835 107.589 281.67C105.745 281.505 105.234 283.419 103.859 283.379C102.471 283.344 100.638 282.904 99.1596 283.248C99.1562 283.257 99.1562 283.257 99.1652 283.26C97.8091 283.444 96.7691 285.449 96.8217 287.863C96.871 290.287 97.9942 292.236 99.3603 292.356L99.3569 292.365C100.848 292.645 102.663 292.118 104.04 292.015C105.415 291.921 106.015 293.808 107.847 293.565Z" fill="#844914"/>
<path d="M92.0645 286.926C92.0402 286.029 92.8864 285.283 93.9466 285.258C95.0068 285.232 95.8745 285.939 95.8988 286.836C95.9231 287.733 95.0769 288.479 94.0167 288.505C92.9565 288.53 92.0887 287.823 92.0645 286.926Z" fill="#A05B22"/>
<path d="M127.449 289.053C127.449 289.053 127.821 283.856 126.138 282.688C124.454 281.52 122.458 281.598 119.538 282.599C116.628 283.603 114.008 284.108 111.274 283.516C108.531 282.921 108.066 282.21 106.225 283.357C104.384 284.505 103.068 284.362 101.553 284.228C100.028 284.09 98.7941 284.525 98.3371 285.717C97.8802 286.908 97.7534 289.224 99.0108 289.716C100.268 290.208 100.289 288.203 100.82 286.978C101.352 285.752 104.751 284.983 105.786 286.754C106.83 288.529 106.621 290.267 108.201 289.817C109.781 289.367 109.279 286.887 111.134 286.499C112.99 286.11 113.643 287.583 118.219 286.997C122.795 286.411 123.877 286.63 124.533 288.342C125.183 290.041 127.256 291.655 127.449 289.053Z" fill="#A05B22"/>
<path d="M150.564 184.509C154.005 185.799 157.843 184.049 159.136 180.6C160.429 177.151 158.687 173.309 155.246 172.019C151.805 170.729 147.967 172.479 146.674 175.928C145.381 179.377 147.123 183.219 150.564 184.509Z" fill="#844914"/>
<path d="M157.121 176.964C156.598 178.358 154.847 178.992 153.221 178.383C151.587 177.77 150.692 176.144 151.215 174.75C151.737 173.357 153.489 172.723 155.115 173.332C156.74 173.942 157.643 175.571 157.121 176.964Z" fill="#A05B22"/>
<path d="M156.637 193.557C155.344 197.006 151.505 198.756 148.065 197.467C144.624 196.177 142.882 192.334 144.175 188.886C145.468 185.437 149.307 183.687 152.747 184.977C156.188 186.266 157.93 190.109 156.637 193.557Z" fill="#844914"/>
<path d="M154.622 189.922C154.099 191.316 152.348 191.949 150.722 191.34C149.088 190.727 148.193 189.102 148.716 187.708C149.238 186.314 150.99 185.68 152.615 186.29C154.241 186.899 155.144 188.528 154.622 189.922Z" fill="#A05B22"/>
<path d="M154.822 206.751C153.529 210.199 149.69 211.95 146.25 210.66C142.809 209.37 141.067 205.527 142.36 202.079C143.653 198.631 147.492 196.88 150.932 198.17C154.373 199.46 156.114 203.302 154.822 206.751Z" fill="#844914"/>
<path d="M152.816 203.119C152.293 204.512 150.541 205.146 148.916 204.537C147.282 203.924 146.387 202.298 146.91 200.905C147.432 199.511 149.184 198.877 150.809 199.486C152.435 200.096 153.338 201.725 152.816 203.119Z" fill="#A05B22"/>
<path d="M145.576 223.363C149.018 224.653 152.855 222.903 154.148 219.454C155.441 216.005 153.7 212.163 150.259 210.873C146.817 209.583 142.98 211.333 141.687 214.782C140.394 218.231 142.135 222.073 145.576 223.363Z" fill="#844914"/>
<path d="M152.137 215.809C151.614 217.203 149.862 217.836 148.237 217.227C146.603 216.614 145.708 214.989 146.231 213.595C146.753 212.201 148.505 211.567 150.13 212.177C151.765 212.789 152.659 214.415 152.137 215.809Z" fill="#A05B22"/>
<path d="M153.152 232.056C151.86 235.504 148.021 237.255 144.58 235.965C141.14 234.675 139.398 230.832 140.691 227.384C141.983 223.936 145.822 222.185 149.263 223.475C152.703 224.765 154.445 228.608 153.152 232.056Z" fill="#844914"/>
<path d="M151.137 228.42C150.615 229.814 148.863 230.448 147.238 229.838C145.603 229.226 144.709 227.6 145.231 226.206C145.754 224.812 147.505 224.179 149.131 224.788C150.765 225.401 151.66 227.027 151.137 228.42Z" fill="#A05B22"/>
<path d="M152.316 245.193C151.024 248.641 147.185 250.392 143.744 249.102C140.304 247.812 138.562 243.969 139.855 240.521C141.147 237.073 144.986 235.322 148.427 236.612C151.867 237.902 153.609 241.745 152.316 245.193Z" fill="#844914"/>
<path d="M150.301 241.557C149.779 242.951 148.027 243.585 146.402 242.976C144.767 242.363 143.873 240.737 144.395 239.343C144.918 237.95 146.669 237.316 148.295 237.925C149.929 238.538 150.824 240.164 150.301 241.557Z" fill="#A05B22"/>
<path d="M141.335 262.011C144.777 263.301 148.614 261.551 149.907 258.102C151.2 254.653 149.459 250.811 146.018 249.521C142.577 248.231 138.739 249.981 137.446 253.43C136.153 256.879 137.894 260.721 141.335 262.011Z" fill="#844914"/>
<path d="M147.892 254.466C147.37 255.86 145.618 256.494 143.993 255.885C142.358 255.272 141.464 253.646 141.986 252.252C142.509 250.859 144.261 250.225 145.886 250.834C147.52 251.447 148.415 253.073 147.892 254.466Z" fill="#A05B22"/>
<path d="M147.844 271.078C146.551 274.527 142.713 276.277 139.272 274.987C135.832 273.698 134.09 269.855 135.382 266.407C136.675 262.958 140.514 261.208 143.954 262.497C147.395 263.787 149.137 267.63 147.844 271.078Z" fill="#844914"/>
<path d="M145.832 267.434C145.31 268.828 143.558 269.461 141.933 268.852C140.298 268.239 139.404 266.614 139.927 265.22C140.449 263.826 142.201 263.192 143.826 263.802C145.461 264.414 146.355 266.04 145.832 267.434Z" fill="#A05B22"/>
<path d="M144.468 283.903C143.175 287.351 139.336 289.102 135.896 287.812C132.455 286.522 130.713 282.68 132.006 279.231C133.299 275.783 137.138 274.032 140.578 275.322C144.028 276.615 145.761 280.455 144.468 283.903Z" fill="#844914"/>
<path d="M142.462 280.271C141.939 281.665 140.188 282.298 138.562 281.689C136.928 281.076 136.033 279.451 136.556 278.057C137.079 276.663 138.83 276.029 140.456 276.639C142.084 277.239 142.988 278.868 142.462 280.271Z" fill="#A05B22"/>
<path d="M131.533 300.412C134.974 301.702 138.812 299.952 140.105 296.503C141.398 293.054 139.656 289.212 136.215 287.922C132.774 286.632 128.936 288.382 127.643 291.831C126.35 295.28 128.092 299.122 131.533 300.412Z" fill="#844914"/>
<path d="M138.09 292.867C137.567 294.261 135.816 294.895 134.19 294.285C132.556 293.672 131.661 292.047 132.184 290.653C132.706 289.259 134.458 288.625 136.084 289.235C137.718 289.848 138.612 291.473 138.09 292.867Z" fill="#A05B22"/>
<path d="M135.106 308.874C133.814 312.323 129.975 314.073 126.534 312.783C123.094 311.494 121.352 307.651 122.645 304.202C123.937 300.754 127.776 299.003 131.217 300.293C134.666 301.586 136.399 305.426 135.106 308.874Z" fill="#844914"/>
<path d="M133.1 305.242C132.578 306.636 130.826 307.27 129.201 306.66C127.566 306.047 126.672 304.422 127.194 303.028C127.717 301.634 129.469 301.001 131.094 301.61C132.723 302.21 133.626 303.839 133.1 305.242Z" fill="#A05B22"/>
<path d="M128.307 320.281C127.014 323.73 123.175 325.48 119.735 324.191C116.294 322.901 114.552 319.058 115.845 315.61C117.138 312.161 120.976 310.411 124.417 311.701C127.854 312.999 129.599 316.833 128.307 320.281Z" fill="#844914"/>
<path d="M126.291 316.646C125.769 318.04 124.017 318.673 122.392 318.064C120.757 317.451 119.863 315.826 120.386 314.432C120.908 313.038 122.66 312.404 124.285 313.014C125.911 313.623 126.814 315.252 126.291 316.646Z" fill="#A05B22"/>
<path d="M113.35 335.919C116.791 337.209 120.629 335.458 121.922 332.009C123.215 328.56 121.474 324.719 118.032 323.429C114.591 322.138 110.753 323.889 109.46 327.338C108.167 330.787 109.909 334.629 113.35 335.919Z" fill="#844914"/>
<path d="M119.91 328.365C119.388 329.759 117.636 330.392 116.011 329.783C114.376 329.17 113.482 327.545 114.005 326.151C114.527 324.757 116.279 324.123 117.904 324.733C119.529 325.342 120.433 326.971 119.91 328.365Z" fill="#A05B22"/>
<path d="M116.895 344.236C115.603 347.685 111.764 349.435 108.323 348.145C104.883 346.856 103.141 343.013 104.434 339.565C105.726 336.116 109.565 334.366 113.006 335.655C116.446 336.945 118.188 340.788 116.895 344.236Z" fill="#844914"/>
<path d="M114.884 340.592C114.361 341.985 112.61 342.619 110.984 342.01C109.35 341.397 108.455 339.771 108.978 338.378C109.5 336.984 111.252 336.35 112.877 336.959C114.503 337.569 115.406 339.198 114.884 340.592Z" fill="#A05B22"/>
<path d="M113.336 356.972C112.044 360.42 108.205 362.171 104.764 360.881C101.324 359.591 99.5819 355.749 100.875 352.3C102.167 348.852 106.006 347.101 109.447 348.391C112.887 349.681 114.629 353.524 113.336 356.972Z" fill="#844914"/>
<path d="M111.321 353.336C110.799 354.73 109.047 355.364 107.422 354.755C105.787 354.142 104.893 352.516 105.415 351.122C105.938 349.729 107.69 349.095 109.315 349.704C110.94 350.314 111.844 351.943 111.321 353.336Z" fill="#A05B22"/>
<path d="M103.106 374.04C106.548 375.33 110.385 373.58 111.678 370.131C112.971 366.682 111.23 362.84 107.789 361.55C104.348 360.26 100.51 362.01 99.2167 365.459C97.9237 368.909 99.6651 372.75 103.106 374.04Z" fill="#844914"/>
<path d="M109.663 366.496C109.141 367.89 107.389 368.523 105.764 367.914C104.129 367.301 103.235 365.676 103.757 364.282C104.28 362.888 106.032 362.254 107.657 362.864C109.291 363.476 110.186 365.102 109.663 366.496Z" fill="#A05B22"/>
<path d="M114.446 383.216C113.153 386.664 109.315 388.415 105.874 387.125C102.434 385.835 100.692 381.992 101.984 378.544C103.277 375.095 107.116 373.345 110.557 374.635C113.997 375.924 115.739 379.767 114.446 383.216Z" fill="#844914"/>
<path d="M112.434 379.571C111.912 380.965 110.16 381.598 108.535 380.989C106.9 380.376 106.006 378.751 106.529 377.357C107.051 375.963 108.803 375.329 110.428 375.939C112.054 376.548 112.957 378.177 112.434 379.571Z" fill="#A05B22"/>
<path d="M111.853 399.008C115.294 400.298 119.132 398.547 120.425 395.098C121.718 391.649 119.976 387.808 116.535 386.517C113.094 385.227 109.256 386.978 107.963 390.427C106.67 393.876 108.411 397.717 111.853 399.008Z" fill="#844914"/>
<path d="M118.413 391.454C117.89 392.848 116.139 393.481 114.513 392.872C112.888 392.263 111.985 390.634 112.507 389.24C113.03 387.846 114.781 387.212 116.407 387.822C118.032 388.431 118.936 390.06 118.413 391.454Z" fill="#A05B22"/>
<path d="M122.336 407.17C125.777 408.46 129.615 406.71 130.908 403.261C132.201 399.812 130.46 395.97 127.019 394.68C123.577 393.39 119.74 395.14 118.447 398.589C117.154 402.038 118.895 405.88 122.336 407.17Z" fill="#844914"/>
<path d="M128.893 399.625C128.371 401.019 126.619 401.653 124.994 401.044C123.359 400.431 122.465 398.805 122.987 397.411C123.51 396.018 125.262 395.384 126.887 395.993C128.512 396.603 129.416 398.232 128.893 399.625Z" fill="#A05B22"/>
<path d="M143.366 407.477C142.073 410.925 138.234 412.676 134.794 411.386C131.353 410.096 129.611 406.253 130.904 402.805C132.197 399.357 136.036 397.606 139.476 398.896C142.917 400.186 144.659 404.029 143.366 407.477Z" fill="#844914"/>
<path d="M141.351 403.841C140.828 405.235 139.077 405.869 137.451 405.26C135.817 404.647 134.922 403.021 135.445 401.627C135.967 400.234 137.719 399.6 139.344 400.209C140.979 400.822 141.873 402.448 141.351 403.841Z" fill="#A05B22"/>
<path d="M156.692 407.755C155.399 411.204 151.56 412.954 148.12 411.664C144.679 410.374 142.937 406.532 144.23 403.083C145.523 399.635 149.362 397.884 152.802 399.174C156.243 400.464 157.985 404.307 156.692 407.755Z" fill="#844914"/>
<path d="M154.686 404.123C154.163 405.517 152.412 406.151 150.786 405.541C149.152 404.928 148.257 403.303 148.78 401.909C149.302 400.515 151.054 399.881 152.679 400.491C154.305 401.1 155.208 402.729 154.686 404.123Z" fill="#A05B22"/>
<path d="M169.757 405.541C168.465 408.989 164.626 410.74 161.185 409.45C157.745 408.16 156.003 404.318 157.296 400.869C158.589 397.421 162.427 395.67 165.868 396.96C169.317 398.253 171.05 402.093 169.757 405.541Z" fill="#844914"/>
<path d="M167.755 401.9C167.232 403.294 165.481 403.927 163.855 403.318C162.23 402.709 161.326 401.08 161.849 399.686C162.372 398.292 164.123 397.658 165.749 398.268C167.374 398.877 168.277 400.506 167.755 401.9Z" fill="#A05B22"/>
<path d="M180.026 397.106C178.733 400.555 174.895 402.305 171.454 401.016C168.013 399.726 166.272 395.883 167.564 392.435C168.857 388.986 172.696 387.236 176.136 388.526C179.577 389.815 181.319 393.658 180.026 397.106Z" fill="#844914"/>
<path d="M178.011 393.471C177.488 394.865 175.737 395.498 174.111 394.889C172.477 394.276 171.583 392.651 172.105 391.257C172.628 389.863 174.379 389.229 176.005 389.839C177.639 390.452 178.533 392.077 178.011 393.471Z" fill="#A05B22"/>
<path d="M188.722 387.484C187.429 390.932 183.59 392.682 180.15 391.393C176.709 390.103 174.967 386.26 176.26 382.812C177.553 379.363 181.391 377.613 184.832 378.903C188.269 380.201 190.014 384.035 188.722 387.484Z" fill="#844914"/>
<path d="M186.706 383.848C186.184 385.242 184.432 385.875 182.807 385.266C181.172 384.653 180.278 383.028 180.801 381.634C181.323 380.24 183.075 379.606 184.7 380.216C186.335 380.829 187.229 382.454 186.706 383.848Z" fill="#A05B22"/>
<path d="M194.367 375.365C193.074 378.813 189.235 380.564 185.795 379.274C182.354 377.984 180.612 374.141 181.905 370.693C183.198 367.245 187.037 365.494 190.477 366.784C193.918 368.074 195.66 371.916 194.367 375.365Z" fill="#844914"/>
<path d="M192.361 371.733C191.838 373.126 190.087 373.76 188.461 373.151C186.827 372.538 185.932 370.912 186.455 369.519C186.977 368.125 188.729 367.491 190.355 368.1C191.98 368.71 192.883 370.339 192.361 371.733Z" fill="#A05B22"/>
<path d="M189.419 366.666C192.861 367.956 196.698 366.206 197.991 362.757C199.284 359.308 197.543 355.466 194.102 354.176C190.661 352.886 186.823 354.636 185.53 358.085C184.237 361.534 185.978 365.376 189.419 366.666Z" fill="#844914"/>
<path d="M195.976 359.121C195.454 360.515 193.702 361.149 192.077 360.539C190.442 359.927 189.548 358.301 190.07 356.907C190.593 355.513 192.345 354.88 193.97 355.489C195.604 356.102 196.499 357.727 195.976 359.121Z" fill="#A05B22"/>
<path d="M201.072 349.842C199.779 353.29 195.94 355.041 192.5 353.751C189.059 352.461 187.317 348.618 188.61 345.17C189.903 341.722 193.742 339.971 197.182 341.261C200.623 342.551 202.365 346.393 201.072 349.842Z" fill="#844914"/>
<path d="M199.057 346.206C198.534 347.6 196.783 348.234 195.157 347.624C193.523 347.012 192.628 345.386 193.151 343.992C193.674 342.598 195.425 341.965 197.051 342.574C198.685 343.187 199.579 344.812 199.057 346.206Z" fill="#A05B22"/>
<path d="M195.439 340.607C198.881 341.898 202.718 340.147 204.011 336.698C205.304 333.249 203.563 329.407 200.122 328.117C196.681 326.827 192.843 328.577 191.55 332.027C190.257 335.476 191.998 339.317 195.439 340.607Z" fill="#844914"/>
<path d="M201.996 333.063C201.474 334.456 199.722 335.09 198.097 334.481C196.471 333.871 195.568 332.242 196.09 330.849C196.613 329.455 198.365 328.821 199.99 329.43C201.615 330.04 202.519 331.669 201.996 333.063Z" fill="#A05B22"/>
<path d="M196.088 327.338C199.529 328.628 203.367 326.878 204.66 323.429C205.953 319.98 204.212 316.138 200.771 314.848C197.329 313.558 193.492 315.308 192.199 318.757C190.906 322.206 192.647 326.048 196.088 327.338Z" fill="#844914"/>
<path d="M202.649 319.784C202.126 321.178 200.374 321.812 198.749 321.203C197.115 320.59 196.22 318.964 196.743 317.57C197.265 316.177 199.017 315.543 200.642 316.152C202.277 316.765 203.171 318.391 202.649 319.784Z" fill="#A05B22"/>
<path d="M205.475 310.212C204.182 313.66 200.343 315.411 196.903 314.121C193.462 312.831 191.721 308.988 193.013 305.54C194.306 302.091 198.145 300.341 201.585 301.631C205.026 302.921 206.768 306.763 205.475 310.212Z" fill="#844914"/>
<path d="M203.46 306.576C202.937 307.97 201.186 308.604 199.56 307.994C197.926 307.381 197.032 305.756 197.554 304.362C198.077 302.968 199.828 302.335 201.454 302.944C203.079 303.553 203.986 305.173 203.46 306.576Z" fill="#A05B22"/>
<path d="M196.539 300.833C199.98 302.123 203.818 300.373 205.111 296.924C206.404 293.475 204.663 289.633 201.221 288.343C197.78 287.053 193.942 288.803 192.649 292.252C191.356 295.701 193.098 299.543 196.539 300.833Z" fill="#844914"/>
<path d="M203.096 293.288C202.573 294.682 200.822 295.316 199.196 294.707C197.562 294.094 196.668 292.468 197.19 291.074C197.713 289.681 199.464 289.047 201.09 289.656C202.715 290.266 203.622 291.885 203.096 293.288Z" fill="#A05B22"/>
<path d="M204.141 270.691C202.849 274.14 199.01 275.89 195.569 274.601C192.129 273.311 190.387 269.468 191.68 266.02C192.972 262.571 196.811 260.821 200.252 262.111C203.689 263.409 205.431 267.252 204.141 270.691Z" fill="#844914"/>
<path d="M202.126 267.056C201.604 268.45 199.852 269.083 198.227 268.474C196.592 267.861 195.698 266.236 196.22 264.842C196.743 263.448 198.494 262.814 200.12 263.424C201.754 264.037 202.649 265.662 202.126 267.056Z" fill="#A05B22"/>
<path d="M197.076 287.697C200.517 288.987 204.355 287.237 205.648 283.788C206.941 280.339 205.199 276.497 201.758 275.207C198.317 273.917 194.479 275.667 193.186 279.116C191.893 282.565 193.635 286.407 197.076 287.697Z" fill="#844914"/>
<path d="M203.633 280.153C203.11 281.546 201.359 282.18 199.733 281.571C198.099 280.958 197.204 279.332 197.727 277.939C198.249 276.545 200.001 275.911 201.626 276.52C203.255 277.121 204.159 278.75 203.633 280.153Z" fill="#A05B22"/>
<path d="M302.457 215.202C302.457 215.202 291.413 219.578 278.009 211.321C264.604 203.065 261.832 203.564 261.043 213.25C260.255 222.937 266.45 241.797 295.885 246.442C325.325 251.099 320.326 237.044 305.649 233.968C290.972 230.891 302.247 231.257 305.754 225.418C309.261 219.58 309.02 214.07 302.457 215.202Z" fill="#EFBF8F"/>
</g>
</g>
</g>
<defs>
<linearGradient id="paint0_linear_819_2229" x1="251.22" y1="83.9528" x2="172.588" y2="293.699" gradientUnits="userSpaceOnUse">
<stop stop-color="white"/>
<stop offset="0.697917" stop-color="#F5FFFF"/>
<stop offset="1" stop-color="#DEFEFF"/>
</linearGradient>
<linearGradient id="paint1_linear_819_2229" x1="363.832" y1="144.992" x2="339.466" y2="209.987" gradientUnits="userSpaceOnUse">
<stop stop-color="white"/>
<stop offset="0.697917" stop-color="#F5FFFF"/>
<stop offset="1" stop-color="#DEFEFF"/>
</linearGradient>
<clipPath id="clip0_819_2229">
<rect width="360" height="440" fill="white"/>
</clipPath>
<clipPath id="clip1_819_2229">
<rect width="295.999" height="224" fill="white" transform="translate(112.638 32) rotate(20.5505)"/>
</clipPath>
<clipPath id="clip2_819_2229">
<rect width="382.971" height="344.55" fill="white" transform="translate(132.948 50.2021) rotate(20.5505)"/>
</clipPath>
</defs>
</svg>
