<svg width="32" height="32" viewBox="0 0 32 32" fill="none" xmlns="http://www.w3.org/2000/svg">
<g clip-path="url(#clip0_1218_2825)">
<path d="M23.5866 4.68833C23.3108 4.65416 23.0375 4.60083 22.7633 4.55583C22.5475 4.39833 22.3175 4.25666 22.12 4.07833C21.7308 3.72666 21.6516 3.25 21.6208 2.75333C21.59 2.25583 21.1825 1.87916 20.6966 1.87416C20.2133 1.86916 19.7708 2.24333 19.7583 2.73416C19.7375 3.58083 19.335 4.16333 18.6108 4.555C18.3366 4.6 18.0633 4.65333 17.7875 4.6875C17.3016 4.7475 16.9291 5.15666 16.9366 5.6375C16.9441 6.12 17.3266 6.49 17.8141 6.56833C18.195 6.62916 18.5625 6.76916 18.9366 6.87333C19.4575 7.29333 19.74 7.8225 19.7575 8.50583C19.77 8.99666 20.2041 9.37333 20.6866 9.3725C21.17 9.3725 21.6025 8.99833 21.615 8.505C21.6325 7.82083 21.9141 7.29166 22.4358 6.8725C22.82 6.7675 23.1983 6.63333 23.5891 6.56416C24.0708 6.47833 24.445 6.0875 24.4366 5.60583C24.4283 5.13833 24.0608 4.7475 23.5866 4.68833Z" fill="url(#paint0_linear_1218_2825)"/>
<path d="M10.3733 14.6917C10.54 14.8367 10.7067 14.9825 10.8725 15.1283C11.18 15.3183 11.4867 15.5075 11.7942 15.6975C11.8742 15.7625 11.9467 15.8408 12.035 15.8892C13.1 16.4683 14.2467 16.7908 15.4483 16.8658C17.1025 16.9692 18.6692 16.6192 20.1225 15.8042C20.4575 15.5575 20.7925 15.3117 21.1267 15.065C21.2925 14.9383 21.4575 14.8117 21.6233 14.685C21.8742 14.4158 22.125 14.1467 22.375 13.8783C22.6033 13.5858 22.8325 13.2933 23.0608 13.0008C23.2275 12.7092 23.3933 12.4175 23.56 12.1258C23.6642 11.7717 23.7692 11.4175 23.8733 11.0633C23.8683 10.465 23.1358 10.0258 22.5067 10.3508C22.1033 10.5592 21.7092 10.7842 21.3108 11.0017C20.775 11.085 20.2383 11.2333 19.7025 11.2333C19.1767 11.2333 18.6508 11.0833 18.125 10.9992C17.6875 10.75 17.25 10.5008 16.8125 10.2517C16.4375 9.81417 16.0617 9.37667 15.6867 8.94C15.2025 7.98667 14.94 6.99917 15.1167 5.91333C15.2708 4.965 15.6408 4.13417 16.2917 3.42667C16.83 2.84167 17.48 2.43667 18.2242 2.165C18.6925 1.99333 18.9633 1.59667 18.9358 1.17583C18.9067 0.733333 18.6275 0.439167 18.0967 0.313333C17.6292 0.2 17.1575 0.103333 16.6875 0C16.1875 0 15.6875 0 15.1875 0C15.1525 0.02 15.1192 0.0533333 15.0825 0.0566667C13.605 0.211667 12.2625 0.725833 11.0667 1.60083C9.69166 2.60667 8.6525 3.88917 8.10583 5.51083C7.84666 6.27917 7.71166 7.09333 7.5775 7.89667C7.51833 8.2525 7.60333 8.63167 7.62333 9.00083C7.68583 9.43833 7.7475 9.87583 7.81 10.3142C7.89333 10.6058 7.97666 10.8983 8.06 11.19C8.185 11.5025 8.31 11.815 8.43583 12.1267C8.6025 12.4183 8.76916 12.71 8.93583 13.0017C9.165 13.315 9.39416 13.6275 9.62333 13.9408C9.87416 14.1908 10.1233 14.4408 10.3733 14.6917Z" fill="#D7EDFE"/>
<path d="M10.3733 14.6917C10.54 14.8367 10.7067 14.9825 10.8725 15.1283C11.18 15.3183 11.4867 15.5075 11.7942 15.6975C11.8742 15.7625 11.9467 15.8408 12.035 15.8892C13.1 16.4683 14.2467 16.7908 15.4483 16.8658C17.1025 16.9692 18.6692 16.6192 20.1225 15.8042C20.4575 15.5575 20.7925 15.3117 21.1267 15.065C21.2925 14.9383 21.4575 14.8117 21.6233 14.685C21.8742 14.4158 22.125 14.1467 22.375 13.8783C22.6033 13.5858 22.8325 13.2933 23.0608 13.0008C23.2275 12.7092 23.3933 12.4175 23.56 12.1258C23.6642 11.7717 23.7692 11.4175 23.8733 11.0633C23.8683 10.465 23.1358 10.0258 22.5067 10.3508C22.1033 10.5592 21.7092 10.7842 21.3108 11.0017C20.775 11.085 20.2383 11.2333 19.7025 11.2333C19.1767 11.2333 18.6508 11.0833 18.125 10.9992C17.6875 10.75 17.25 10.5008 16.8125 10.2517C16.4375 9.81417 16.0617 9.37667 15.6867 8.94C15.2025 7.98667 14.94 6.99917 15.1167 5.91333C15.2708 4.965 15.6408 4.13417 16.2917 3.42667C16.83 2.84167 17.48 2.43667 18.2242 2.165C18.6925 1.99333 18.9633 1.59667 18.9358 1.17583C18.9067 0.733333 18.6275 0.439167 18.0967 0.313333C17.6292 0.2 17.1575 0.103333 16.6875 0C16.1875 0 15.6875 0 15.1875 0C15.1525 0.02 15.1192 0.0533333 15.0825 0.0566667C13.605 0.211667 12.2625 0.725833 11.0667 1.60083C9.69166 2.60667 8.6525 3.88917 8.10583 5.51083C7.84666 6.27917 7.71166 7.09333 7.5775 7.89667C7.51833 8.2525 7.60333 8.63167 7.62333 9.00083C7.68583 9.43833 7.7475 9.87583 7.81 10.3142C7.89333 10.6058 7.97666 10.8983 8.06 11.19C8.185 11.5025 8.31 11.815 8.43583 12.1267C8.6025 12.4183 8.76916 12.71 8.93583 13.0017C9.165 13.315 9.39416 13.6275 9.62333 13.9408C9.87416 14.1908 10.1233 14.4408 10.3733 14.6917Z" fill="url(#paint1_linear_1218_2825)"/>
<path d="M18.0168 26.0567C18.0959 25.995 18.1684 25.9225 18.2551 25.8742C18.8809 25.525 19.5093 25.1808 20.1368 24.8342C20.7184 24.5192 21.3001 24.2033 21.8818 23.8875C22.4243 23.5933 22.9676 23.2983 23.5101 23.0042C23.8501 22.8283 24.1951 22.6617 24.5276 22.475C24.8593 22.2883 25.1793 22.0808 25.5034 21.8817C25.8168 21.7133 26.1301 21.5458 26.4434 21.3775C26.3776 21.3667 26.3126 21.3508 26.2468 21.3375C26.3126 21.3508 26.3776 21.3658 26.4434 21.3775C26.7759 21.2117 27.1076 21.0458 27.4401 20.88C27.8584 20.655 28.2768 20.4292 28.6959 20.2042C29.2551 19.9025 29.8151 19.6008 30.3743 19.2992C30.5468 19.2108 30.7226 19.1267 30.8926 19.0325C31.3176 18.7983 31.7943 18.6258 32.0001 18.1242C32.0001 17.9575 32.0001 17.7908 32.0001 17.6242C31.5584 16.8708 31.1493 16.7592 30.3726 17.1858C29.6743 17.5692 28.9768 17.9542 28.2793 18.3408C28.1584 18.4083 28.0434 18.4892 27.9543 18.3042C27.7801 17.9733 27.6068 17.6425 27.4326 17.3117C27.2868 17.0192 27.1326 16.73 26.9959 16.4325C26.5693 15.5008 26.1009 15.19 25.0326 15.8208C24.1984 16.3133 23.3351 16.7558 22.4851 17.2208C21.8301 17.5783 21.1759 17.9358 20.5209 18.2942C20.0518 18.5417 19.5826 18.79 19.1134 19.0375C18.5309 19.3517 17.9476 19.6667 17.3651 19.9808C16.9293 20.2125 16.4926 20.445 16.0568 20.6767C15.9968 20.6775 15.9368 20.6792 15.8768 20.68C15.2101 20.3258 14.5434 19.9717 13.8768 19.6175C13.2934 19.3042 12.7101 18.9917 12.1268 18.6783C11.4726 18.3225 10.8176 17.9667 10.1634 17.6108C8.92843 16.9283 7.69927 16.2342 6.4551 15.5692C6.0401 15.3467 5.52427 15.5167 5.28927 15.9267C4.9701 16.4833 4.68177 17.0575 4.38093 17.6242C4.22093 17.8967 4.0601 18.1683 3.9001 18.44C3.0626 17.9767 2.25093 17.5208 1.43343 17.0767C0.922601 16.7992 0.429268 16.9383 0.114268 17.4258C0.0817676 17.4758 0.0376009 17.5175 -0.000732422 17.5625C-0.000732422 17.75 -0.000732422 17.9375 -0.000732422 18.125C0.187601 18.5367 0.530101 18.7683 0.937601 18.9242C1.46343 19.2083 1.98843 19.4925 2.51427 19.7758C3.19593 20.1433 3.87843 20.51 4.5601 20.8775C4.88093 21.0492 5.20177 21.2208 5.5226 21.3925C5.8226 21.5558 6.1226 21.7192 6.4226 21.8825C7.13593 22.2708 7.84927 22.6592 8.5626 23.0475C9.08177 23.3267 9.60093 23.605 10.1201 23.8842C10.7018 24.1992 11.2843 24.515 11.8659 24.83C12.4318 25.1425 12.9993 25.4525 13.5626 25.77C13.7101 25.8533 13.8434 25.9608 13.9834 26.0567C12.9034 26.6383 11.8243 27.22 10.7443 27.8017C9.65927 28.3867 8.57343 28.9708 7.48843 29.5558C7.03093 29.7958 6.55843 30.01 6.1201 30.2808C5.51093 30.6575 5.54927 31.5142 6.1676 31.8767C6.23677 31.9175 6.30593 31.9583 6.37427 31.9992C6.54093 31.9992 6.7076 31.9992 6.87427 31.9992C6.8851 31.9825 6.8926 31.96 6.90843 31.9517C8.25177 31.2192 9.59593 30.4875 10.9401 29.7558C10.9901 29.7458 11.0468 29.7475 11.0901 29.7242C12.1451 29.1525 13.1984 28.5783 14.2518 28.0042C14.7634 27.735 15.2709 27.455 15.7918 27.205C15.9076 27.1492 16.0943 27.1508 16.2118 27.2058C16.6609 27.4142 17.0951 27.6542 17.5351 27.8833C17.7759 28.0208 18.0143 28.165 18.2584 28.2958C19.1009 28.7458 19.9451 29.1908 20.7884 29.6375C20.8551 29.6842 20.9176 29.7375 20.9884 29.775C21.8984 30.2633 22.8118 30.7467 23.7193 31.2383C24.1709 31.4833 24.6143 31.745 25.0609 31.9992C25.2484 31.9992 25.4359 31.9992 25.6234 31.9992C25.6651 31.9725 25.7051 31.9417 25.7484 31.92C26.0951 31.7492 26.2959 31.4758 26.3059 31.0867C26.3159 30.6983 26.1334 30.4075 25.7943 30.225C25.3018 29.9592 24.8043 29.7033 24.3093 29.4425C23.2259 28.8592 22.1426 28.2758 21.0593 27.6925C20.0459 27.1475 19.0309 26.6025 18.0168 26.0567Z" fill="url(#paint2_linear_1218_2825)"/>
</g>
<defs>
<linearGradient id="paint0_linear_1218_2825" x1="20.6866" y1="1.87411" x2="20.6866" y2="9.3725" gradientUnits="userSpaceOnUse">
<stop stop-color="#EDC938" stop-opacity="0.2"/>
<stop offset="1" stop-color="#EDC938"/>
</linearGradient>
<linearGradient id="paint1_linear_1218_2825" x1="15.7151" y1="0" x2="15.7151" y2="16.8835" gradientUnits="userSpaceOnUse">
<stop stop-color="#0DA28C" stop-opacity="0.4"/>
<stop offset="1" stop-color="#036A5B"/>
</linearGradient>
<linearGradient id="paint2_linear_1218_2825" x1="15.9997" y1="15.4708" x2="15.9997" y2="31.9992" gradientUnits="userSpaceOnUse">
<stop stop-color="#0DA28C" stop-opacity="0.4"/>
<stop offset="1" stop-color="#036A5B"/>
</linearGradient>
<clipPath id="clip0_1218_2825">
<rect width="32" height="32" fill="white"/>
</clipPath>
</defs>
</svg>
