<svg width="28" height="27" viewBox="0 0 28 27" fill="none" xmlns="http://www.w3.org/2000/svg">
<path d="M15.3334 24V26.6667H12.6667V24H2.00008C1.64646 24 1.30732 23.8595 1.05727 23.6095C0.807224 23.3594 0.666748 23.0203 0.666748 22.6667V1.33334C0.666748 0.979715 0.807224 0.640576 1.05727 0.390528C1.30732 0.140479 1.64646 3.74485e-06 2.00008 3.74485e-06H10.0001C10.7569 -0.000894139 11.5051 0.159679 12.1949 0.471C12.8847 0.782321 13.5001 1.23723 14.0001 1.80534C14.5001 1.23723 15.1155 0.782321 15.8053 0.471C16.495 0.159679 17.2433 -0.000894139 18.0001 3.74485e-06H26.0001C26.3537 3.74485e-06 26.6928 0.140479 26.9429 0.390528C27.1929 0.640576 27.3334 0.979715 27.3334 1.33334V22.6667C27.3334 23.0203 27.1929 23.3594 26.9429 23.6095C26.6928 23.8595 26.3537 24 26.0001 24H15.3334ZM24.6667 21.3333V2.66667H18.0001C17.2928 2.66667 16.6146 2.94762 16.1145 3.44772C15.6144 3.94782 15.3334 4.62609 15.3334 5.33334V21.3333H24.6667ZM12.6667 21.3333V5.33334C12.6667 4.62609 12.3858 3.94782 11.8857 3.44772C11.3856 2.94762 10.7073 2.66667 10.0001 2.66667H3.33341V21.3333H12.6667Z" fill="#F5F5F5"/>
</svg>
